<svg xmlns="http://www.w3.org/2000/svg" xmlns:xlink="http://www.w3.org/1999/xlink" width="64" zoomAndPan="magnify" viewBox="0 0 48 48" height="64" preserveAspectRatio="xMidYMid meet" version="1.0"><defs><clipPath id="bdceaeafef"><path d="M 5 13 L 29 13 L 29 16 L 5 16 Z M 5 13 " clip-rule="nonzero"/></clipPath><clipPath id="e27f0c12a5"><path d="M 18.6875 0 L 33.234375 14.546875 L 18.6875 29.09375 L 4.140625 14.546875 Z M 18.6875 0 " clip-rule="nonzero"/></clipPath><clipPath id="7a8995a1c7"><path d="M 18.6875 0 L 33.234375 14.546875 L 18.6875 29.09375 L 4.140625 14.546875 Z M 18.6875 0 " clip-rule="nonzero"/></clipPath><clipPath id="0cbdffcb14"><path d="M 21 8 L 28 8 L 28 21 L 21 21 Z M 21 8 " clip-rule="nonzero"/></clipPath><clipPath id="7aed40876c"><path d="M 18.6875 0 L 33.234375 14.546875 L 18.6875 29.09375 L 4.140625 14.546875 Z M 18.6875 0 " clip-rule="nonzero"/></clipPath><clipPath id="00ddb8cb05"><path d="M 18.6875 0 L 33.234375 14.546875 L 18.6875 29.09375 L 4.140625 14.546875 Z M 18.6875 0 " clip-rule="nonzero"/></clipPath><clipPath id="d6755ee98d"><path d="M 22 9 L 27 9 L 27 20 L 22 20 Z M 22 9 " clip-rule="nonzero"/></clipPath><clipPath id="1ac8c3d3e2"><path d="M 18.6875 0 L 33.234375 14.546875 L 18.6875 29.09375 L 4.140625 14.546875 Z M 18.6875 0 " clip-rule="nonzero"/></clipPath><clipPath id="b08f78559c"><path d="M 18.6875 0 L 33.234375 14.546875 L 18.6875 29.09375 L 4.140625 14.546875 Z M 18.6875 0 " clip-rule="nonzero"/></clipPath><clipPath id="052e72f2e9"><path d="M 27 9 L 28 9 L 28 20 L 27 20 Z M 27 9 " clip-rule="nonzero"/></clipPath><clipPath id="f5467c600a"><path d="M 18.6875 0 L 33.234375 14.546875 L 18.6875 29.09375 L 4.140625 14.546875 Z M 18.6875 0 " clip-rule="nonzero"/></clipPath><clipPath id="d896a92b1a"><path d="M 18.6875 0 L 33.234375 14.546875 L 18.6875 29.09375 L 4.140625 14.546875 Z M 18.6875 0 " clip-rule="nonzero"/></clipPath><clipPath id="e82a202c4c"><path d="M 27 13 L 29 13 L 29 15 L 27 15 Z M 27 13 " clip-rule="nonzero"/></clipPath><clipPath id="b05e5d725a"><path d="M 18.6875 0 L 33.234375 14.546875 L 18.6875 29.09375 L 4.140625 14.546875 Z M 18.6875 0 " clip-rule="nonzero"/></clipPath><clipPath id="566198ecc4"><path d="M 18.6875 0 L 33.234375 14.546875 L 18.6875 29.09375 L 4.140625 14.546875 Z M 18.6875 0 " clip-rule="nonzero"/></clipPath><clipPath id="7c90e3c03b"><path d="M 5 13 L 21 13 L 21 15 L 5 15 Z M 5 13 " clip-rule="nonzero"/></clipPath><clipPath id="1a5091e6a2"><path d="M 18.6875 0 L 33.234375 14.546875 L 18.6875 29.09375 L 4.140625 14.546875 Z M 18.6875 0 " clip-rule="nonzero"/></clipPath><clipPath id="31c7359072"><path d="M 18.6875 0 L 33.234375 14.546875 L 18.6875 29.09375 L 4.140625 14.546875 Z M 18.6875 0 " clip-rule="nonzero"/></clipPath><clipPath id="4210e09de5"><path d="M 9 20.335938 L 43.570312 20.335938 L 43.570312 39.4375 L 9 39.4375 Z M 9 20.335938 " clip-rule="nonzero"/></clipPath><clipPath id="456ea564f8"><path d="M 0.421875 0.335938 L 34.570312 0.335938 L 34.570312 19.4375 L 0.421875 19.4375 Z M 0.421875 0.335938 " clip-rule="nonzero"/></clipPath><clipPath id="0d6e14d48d"><rect x="0" width="35" y="0" height="20"/></clipPath></defs><g clip-path="url(#bdceaeafef)"><g clip-path="url(#e27f0c12a5)"><g clip-path="url(#7a8995a1c7)"><path fill="#040606" d="M 5.785156 15.761719 C 5.46875 15.761719 5.210938 15.5 5.210938 15.183594 L 5.207031 13.800781 C 5.207031 13.484375 5.46875 13.226562 5.785156 13.222656 L 27.757812 13.199219 C 28.074219 13.199219 28.332031 13.460938 28.332031 13.777344 L 28.335938 15.160156 C 28.335938 15.476562 28.078125 15.738281 27.757812 15.738281 L 5.785156 15.761719 " fill-opacity="1" fill-rule="nonzero"/></g></g></g><g clip-path="url(#0cbdffcb14)"><g clip-path="url(#7aed40876c)"><g clip-path="url(#00ddb8cb05)"><path fill="#040606" d="M 24.847656 20.386719 C 24.851562 20.386719 24.855469 20.386719 24.859375 20.386719 C 24.863281 20.386719 24.871094 20.386719 24.875 20.386719 L 26.558594 20.386719 C 27.105469 20.382812 27.554688 20.09375 27.554688 19.734375 C 27.554688 19.734375 27.550781 16.546875 27.546875 14.480469 C 27.550781 12.414062 27.554688 9.226562 27.554688 9.226562 C 27.554688 8.867188 27.105469 8.578125 26.558594 8.578125 L 24.875 8.574219 C 24.871094 8.574219 24.863281 8.574219 24.859375 8.574219 C 24.855469 8.574219 24.851562 8.574219 24.847656 8.574219 L 22.980469 8.574219 C 22.433594 8.574219 21.980469 8.863281 21.980469 9.222656 C 21.980469 9.222656 21.976562 11.4375 21.976562 13.367188 C 21.972656 13.394531 21.972656 13.417969 21.972656 13.441406 C 21.972656 13.726562 21.972656 14.082031 21.972656 14.480469 C 21.972656 14.878906 21.972656 15.234375 21.972656 15.519531 C 21.972656 15.542969 21.972656 15.566406 21.976562 15.59375 C 21.976562 17.523438 21.980469 19.738281 21.980469 19.738281 C 21.984375 20.097656 22.433594 20.386719 22.980469 20.386719 L 24.847656 20.386719 " fill-opacity="1" fill-rule="nonzero"/></g></g></g><g clip-path="url(#d6755ee98d)"><g clip-path="url(#1ac8c3d3e2)"><g clip-path="url(#b08f78559c)"><path fill="#9ca3af" d="M 22.714844 9.148438 L 22.714844 9.589844 C 22.714844 9.589844 23.921875 9.605469 24.863281 9.683594 C 25.800781 9.765625 26.355469 9.964844 26.433594 10.097656 C 26.515625 10.230469 26.621094 19.40625 26.59375 19.738281 C 26.566406 20.074219 26.699219 19.929688 26.699219 19.929688 C 26.699219 19.929688 26.605469 9.738281 26.578125 9.46875 C 26.550781 9.203125 26.5 9.175781 25.425781 9.148438 C 24.351562 9.121094 22.714844 9.148438 22.714844 9.148438 " fill-opacity="1" fill-rule="nonzero"/></g></g></g><g clip-path="url(#052e72f2e9)"><g clip-path="url(#f5467c600a)"><g clip-path="url(#d896a92b1a)"><path fill="#9ca3af" d="M 27.078125 9.191406 C 27.078125 9.191406 27.351562 9.28125 27.359375 9.414062 C 27.371094 9.542969 27.382812 19.738281 27.382812 19.738281 C 27.382812 19.738281 27.230469 19.917969 27.148438 19.960938 C 27.070312 20 27.089844 9.300781 27.078125 9.191406 " fill-opacity="1" fill-rule="nonzero"/></g></g></g><g clip-path="url(#e82a202c4c)"><g clip-path="url(#b05e5d725a)"><g clip-path="url(#566198ecc4)"><path fill="#9ca3af" d="M 27.585938 13.464844 C 27.585938 13.464844 27.820312 13.460938 27.925781 13.476562 C 28.066406 13.492188 28.183594 13.703125 28.183594 13.769531 C 28.183594 13.839844 28.195312 14.441406 28.183594 14.769531 C 28.167969 15.097656 28.089844 15.019531 28.082031 14.671875 C 28.0625 13.710938 27.496094 13.644531 27.585938 13.464844 " fill-opacity="1" fill-rule="nonzero"/></g></g></g><g clip-path="url(#7c90e3c03b)"><g clip-path="url(#1a5091e6a2)"><g clip-path="url(#31c7359072)"><path fill="#9ca3af" d="M 5.625 14.003906 L 5.625 13.65625 L 20.582031 13.65625 L 20.582031 14.003906 L 5.625 14.003906 " fill-opacity="1" fill-rule="nonzero"/></g></g></g><g clip-path="url(#4210e09de5)"><g transform="matrix(1, 0, 0, 1, 9, 20)"><g clip-path="url(#0d6e14d48d)"><g clip-path="url(#456ea564f8)"><path fill="#112033" d="M 22.136719 0.398438 C 22.3125 0.398438 22.464844 0.476562 22.570312 0.597656 C 22.570312 0.730469 22.625 0.828125 22.703125 0.902344 C 22.789062 0.976562 22.902344 1.027344 23.011719 1.058594 C 23.203125 1.109375 23.382812 1.109375 23.386719 1.109375 L 34.332031 1.046875 C 34.722656 1.046875 34.800781 1.453125 34.589844 1.78125 C 33.878906 2.890625 31.699219 4.410156 27.585938 5.757812 C 21.882812 7.628906 19.597656 6.570312 19.597656 10.910156 C 19.597656 12.878906 20.316406 13.574219 21.183594 14.050781 C 21.40625 14.171875 21.636719 14.28125 21.867188 14.390625 L 21.878906 14.390625 C 22.257812 14.566406 22.785156 14.800781 23.457031 15.074219 L 22.460938 14.390625 L 25.640625 14.390625 L 25.640625 15.472656 L 27.410156 16.238281 C 27.410156 19.363281 27.515625 19.554688 27.136719 19.554688 L 20.980469 19.554688 C 20.980469 19.554688 19.734375 17.621094 16.105469 17.621094 C 12.425781 17.621094 11.230469 19.554688 11.230469 19.554688 C 4.75 19.554688 4.796875 19.671875 4.796875 19.28125 L 4.796875 16.238281 L 6.570312 15.472656 L 6.570312 14.390625 L 9.746094 14.390625 L 8.75 15.074219 C 9.425781 14.800781 9.953125 14.566406 10.328125 14.390625 L 10.339844 14.390625 C 10.570312 14.28125 10.804688 14.171875 11.023438 14.050781 C 11.894531 13.574219 12.613281 12.878906 12.613281 10.910156 C 12.613281 7.566406 11.269531 6.886719 10.03125 6.253906 C 7.84375 5.136719 2.765625 4.359375 1.496094 4.175781 C 0.804688 4.078125 1.617188 1.230469 0.84375 1.230469 C 0.597656 1.230469 0.648438 1.230469 0.648438 0.511719 C 0.648438 0.34375 -0.695312 0.398438 22.136719 0.398438 Z M 32.539062 3.089844 C 31.78125 3.425781 31.113281 3.820312 27.828125 5.15625 C 27.691406 5.214844 27.613281 5.246094 27.613281 5.246094 C 29.265625 4.90625 31.25 4.011719 32.539062 3.089844 Z M 23.976562 3.835938 C 23.976562 3.835938 26.351562 2.472656 33.496094 1.609375 C 28.738281 1.609375 23.976562 1.675781 23.976562 1.675781 Z M 5.585938 18.886719 L 5.582031 18.871094 C 5.582031 18.871094 5.488281 17.917969 5.402344 17.390625 C 5.359375 17.9375 5.339844 18.570312 5.355469 19.121094 C 6.140625 19.144531 7.523438 19.222656 9.015625 19.074219 C 7.570312 18.871094 5.691406 18.875 5.585938 18.886719 Z M 11.601562 15.929688 C 11.023438 16.273438 10.605469 16.304688 10.605469 16.304688 L 6.421875 16.304688 C 6.421875 16.304688 9.3125 16.589844 9.847656 16.632812 C 10.617188 16.699219 10.691406 17.226562 10.691406 17.226562 L 11.125 18.847656 L 11.125 16.949219 C 11.125 16.347656 11.609375 15.929688 11.609375 15.929688 Z M 20.675781 7.34375 C 19.355469 7.621094 19.039062 9.207031 19.203125 10.523438 C 19.40625 9.5625 19.425781 8.089844 20.675781 7.34375 Z M 26.855469 19.117188 L 26.894531 16.90625 C 26.8125 17.257812 26.738281 17.660156 26.648438 17.988281 C 26.410156 18.847656 25.644531 19.132812 25.628906 19.136719 C 26.210938 19.136719 26.355469 19.140625 26.855469 19.117188 Z M 21.085938 16.949219 L 21.085938 18.847656 L 21.519531 17.226562 C 21.519531 17.226562 21.59375 16.699219 22.363281 16.632812 C 22.898438 16.589844 26.410156 16.375 26.410156 16.375 L 21.601562 16.304688 C 21.601562 16.304688 21.324219 16.074219 20.886719 15.761719 C 19.933594 15.085938 19.390625 14.96875 19.390625 14.96875 C 19.390625 14.96875 21.085938 15.777344 21.085938 16.949219 Z M 12.554688 15.894531 C 11.957031 16.371094 11.972656 16.726562 11.972656 17.058594 C 11.972656 17.390625 11.972656 18.238281 11.972656 18.238281 C 14.902344 16.453125 18.144531 17.28125 19.105469 17.59375 C 19.199219 17.625 19.292969 17.660156 19.390625 17.691406 C 19.390625 17.691406 19.289062 17.652344 19.105469 17.59375 C 16.882812 16.800781 16.03125 16.15625 15.730469 15.707031 C 15.503906 15.164062 17.074219 14.898438 17.074219 14.898438 C 16.386719 14.890625 15.4375 14.996094 14.953125 15.054688 C 14.855469 15.066406 14.761719 15.078125 14.667969 15.09375 C 14.65625 15.09375 14.648438 15.09375 14.648438 15.09375 C 13.742188 15.234375 12.992188 15.546875 12.554688 15.894531 Z M 13.257812 10.523438 C 13.558594 9.027344 13.015625 7.730469 13.414062 7 C 14.011719 5.898438 16.324219 5.898438 16.324219 5.898438 L 10.605469 5.898438 C 13.464844 6.726562 13.257812 10.523438 13.257812 10.523438 Z M 21.183594 1.851562 C 15.808594 1.625 6.992188 1.578125 2.140625 1.714844 C 7.011719 1.921875 15.789062 2 21.183594 1.851562 Z M 21.621094 1.40625 C 22.539062 1.523438 22.570312 2.335938 22.570312 2.460938 L 22.570312 3.449219 C 22.570312 3.519531 22.570312 3.589844 22.570312 3.65625 L 22.570312 3.835938 C 22.570312 3.835938 22.570312 3.832031 22.574219 3.824219 C 22.597656 5.429688 22.835938 5.898438 22.835938 5.898438 C 22.6875 5.1875 22.738281 3.578125 22.789062 2.617188 C 22.792969 2.539062 22.796875 2.464844 22.800781 2.394531 C 22.8125 2.320312 22.828125 2.242188 22.839844 2.164062 C 22.839844 2.101562 22.835938 2.039062 22.828125 1.980469 C 22.824219 1.96875 22.824219 1.953125 22.820312 1.941406 C 22.792969 1.765625 22.734375 1.621094 22.660156 1.507812 C 22.636719 1.472656 22.613281 1.441406 22.589844 1.414062 C 22.582031 1.40625 22.578125 1.398438 22.570312 1.394531 C 22.523438 1.34375 22.476562 1.300781 22.425781 1.261719 C 22.226562 1.117188 22.007812 1.070312 21.902344 1.054688 L 1.890625 1.253906 Z M 21.621094 1.40625 " fill-opacity="1" fill-rule="nonzero"/></g></g></g></g></svg>